Coordinates
nRows=10
nColumns=38

# SIMM Motion File Header:
name Coordinates
datacolumns 38
datarows 10
otherdata 1
range 2.68500000000000010000 2.69400000000000000000

Units are S.I. units (second, meters, Newtons, ...)
Angles are in degrees.

endheader
time	pelvis_tilt	pelvis_list	pelvis_rotation	pelvis_tx	pelvis_ty	pelvis_tz	hip_flexion_r	hip_adduction_r	hip_rotation_r	knee_angle_r	ankle_angle_r	subtalar_angle_r	mtp_angle_r	hip_flexion_l	hip_adduction_l	hip_rotation_l	knee_angle_l	ankle_angle_l	subtalar_angle_l	mtp_angle_l	lumbar_extension	lumbar_bending	lumbar_rotation	arm_flex_r	arm_add_r	arm_rot_r	elbow_flex_r	pro_sup_r	wrist_flex_r	wrist_dev_r	arm_flex_l	arm_add_l	arm_rot_l	elbow_flex_l	pro_sup_l	wrist_flex_l	wrist_dev_l
      2.68500000000000010000	     -8.34921860956666430000	      1.73969448632074330000	      5.61099175693517080000	      0.85602320801049780000	      0.94984503098796547000	     -0.30819140056307487000	     45.65011233689928400000	     -4.70448392970184240000	     -1.27295101260793930000	   -131.04470243501504000000	      0.69657164028781859000	      0.00000000000014748807	     -0.00000000000004382999	     16.67104185188844700000	     10.85907270061943200000	      1.16270596665383170000	    -44.30816148009061800000	     28.13946730175147300000	     -0.00000000000000125712	      0.00000000000006283131	     -7.93154272853665000000	     -4.47842456246453310000	     -8.22413917390853650000	    -37.35419014427791500000	    -22.28442685438030000000	     -6.33822408077781140000	     92.85706420610468100000	     89.61224519125531200000	     -0.00000000000003068090	      0.00000000000006038392	     -8.61218866631688050000	    -27.08821906534833700000	     -5.37172734689548380000	    109.25597362317515000000	    118.08523206743850000000	     -0.00000000000000126239	     -0.00000000000003960307
      2.68599999999999990000	     -8.37013941713298590000	      1.67664635053708940000	      5.67217151224134140000	      0.85600669958637166000	      0.95019932812683117000	     -0.30822358247512344000	     46.04462954883823000000	     -4.68714272875349190000	     -1.34255251015269070000	   -130.81777917398441000000	      0.81423005429321427000	      0.00000000000014793468	     -0.00000000000004386794	     16.28617071531990800000	     10.77545684011558300000	      1.28381224339147120000	    -44.04805483154564900000	     28.07671894256025500000	     -0.00000000000000183780	      0.00000000000006352423	     -7.89700540234114980000	     -4.39935191360674690000	     -8.40980867046492440000	    -37.57883308695522800000	    -22.27371053542451300000	     -6.30649491860110260000	     92.85432958027543300000	     89.45867432106381000000	     -0.00000000000003074770	      0.00000000000006059614	     -8.43234886285864960000	    -27.15768076817645100000	     -5.31706626795684660000	    109.39981110795469000000	    117.98857942179123000000	     -0.00000000000000125660	     -0.00000000000003968179
      2.68700000000000030000	     -8.39028503490722420000	      1.61279572653485380000	      5.73436186511662170000	      0.85599813127580926000	      0.95056293331218877000	     -0.30825800229893041000	     46.43359424831457000000	     -4.67156717751789240000	     -1.41479536426224570000	   -130.58237347367074000000	      0.93221976868170209000	      0.00000000000014838958	     -0.00000000000004390665	     15.89846269717076800000	     10.68999937491324400000	      1.40703836238567280000	    -43.78250938243421300000	     28.00323175496136600000	     -0.00000000000000241305	      0.00000000000006415860	     -7.86223240151155080000	     -4.31907539431836350000	     -8.59470447795210820000	    -37.80541404020943500000	    -22.26215486119843900000	     -6.27768988716468000000	     92.85518116227332500000	     89.31141327735476000000	     -0.00000000000003081426	      0.00000000000006081212	     -8.25312865000501890000	    -27.22786138303549200000	     -5.25843293421634690000	    109.54461715819285000000	    117.89124341593819000000	     -0.00000000000000125341	     -0.00000000000003975856
      2.68800000000000020000	     -8.40972742679076820000	      1.54810943690407530000	      5.79754921328787990000	      0.85599736272518112000	      0.95093564744151760000	     -0.30829462414413017000	     46.81705091097099800000	     -4.65771856465017550000	     -1.48964460927540760000	   -130.33859511217693000000	      1.05054442822699450000	      0.00000000000014884694	     -0.00000000000004394536	     15.50814682557921200000	     10.60264235710147700000	      1.53232683241723120000	    -43.51172851503555000000	     27.91887475219329700000	     -0.00000000000000302072	      0.00000000000006477646	     -7.82714991018287790000	     -4.23756981164159190000	     -8.77871386647521670000	    -38.03396405961942200000	    -22.24963917570573100000	     -6.25192291055473340000	     92.85951142940321300000	     89.17049431382305600000	     -0.00000000000003087879	      0.00000000000006103035	     -8.07442099215995410000	    -27.29871454215728500000	     -5.19577306595525630000	    109.69026313563322000000	    117.79317494704688000000	     -0.00000000000000125170	     -0.00000000000003985152
      2.68900000000000010000	     -8.42853270670099700000	      1.48255925497493070000	      5.86171731302414050000	      0.85600424795813623000	      0.95131728078032551000	     -0.30833340501778533000	     47.19503980834316100000	     -4.64555794661520420000	     -1.56706152534925640000	   -130.08655252472388000000	      1.16920266463313500000	      0.00000000000014930922	     -0.00000000000004398391	     15.11544779316942700000	     10.51333021623363500000	      1.65960800144506650000	    -43.23591522761216800000	     27.82351798254968100000	     -0.00000000000000362984	      0.00000000000006533782	     -7.79169319627213050000	     -4.15481574350317380000	     -8.96172919245398520000	    -38.26450351258249300000	    -22.23604628399018800000	     -6.22929527116990300000	     92.86721065335874000000	     89.03592273838792400000	     -0.00000000000003094147	      0.00000000000006125158	     -7.89612556294194160000	    -27.37019007500166600000	     -5.12905239140862350000	    109.83663113963614000000	    117.69432402791757000000	     -0.00000000000000125151	     -0.00000000000003996637
      2.68999999999999990000	     -8.44676425304301400000	      1.41612209531130830000	      5.92684747884562050000	      0.85601863503147146000	      0.95170764813557884000	     -0.30837429515224413000	     47.56760068491733100000	     -4.63504665875676200000	     -1.64700345733651290000	   -129.82635293124738000000	      1.28818750718311370000	      0.00000000000014977091	     -0.00000000000004402377	     14.72058923972912800000	     10.42201032451909100000	      1.78879960209913520000	    -42.95527197747561100000	     27.71703211889165900000	     -0.00000000000000419365	      0.00000000000006583417	     -7.75580302729424890000	     -4.07080007837428860000	     -9.14364831269959130000	    -38.49704248089858500000	    -22.22126270427614600000	     -6.20989534040371630000	     92.87816673720773500000	     88.90767770732244900000	     -0.00000000000003100419	      0.00000000000006147573	     -7.71815006938926460000	    -27.44223400799070600000	     -5.05825708919966920000	    109.98361413978280000000	    117.59464133137810000000	     -0.00000000000000125229	     -0.00000000000004009216
      2.69100000000000030000	     -8.46448455517169940000	      1.34878021271546020000	      5.99291874674752820000	      0.85604036609965195000	      0.95210656607166366000	     -0.30841723828547557000	     47.93477487486815400000	     -4.62614676360123680000	     -1.72942373401921960000	   -129.55810229037345000000	      1.40748595409715580000	      0.00000000000015023017	     -0.00000000000004406493	     14.32379549455170300000	     10.32863347737424000000	      1.91980642419269180000	    -42.67000025220883000000	     27.59928815162781700000	     -0.00000000000000473141	      0.00000000000006627032	     -7.71942353729909400000	     -3.98551643697328740000	     -9.32437499860771090000	    -38.73158096688357000000	    -22.20517895356221100000	     -6.19379832203836860000	     92.89226513246571000000	     88.78571299078130600000	     -0.00000000000003106751	      0.00000000000006170011	     -7.54041127277999570000	    -27.51478861158768300000	     -4.98339413926816290000	    110.13111608533910000000	    117.49407967251734000000	     -0.00000000000000125325	     -0.00000000000004021260
      2.69200000000000020000	     -8.48175645681868140000	      1.28052132995932540000	      6.05990785604933270000	      0.85606927774814678000	      0.95251385102000163000	     -0.30846217173362228000	     48.29660671646278300000	     -4.61882127555458590000	     -1.81427155834076380000	   -129.28190521822572000000	      1.52707870465021740000	      0.00000000000015069114	     -0.00000000000004410609	     13.92529257858200300000	     10.23315425727421200000	      2.05252006958049370000	    -42.38030004597453600000	     27.47015721176569900000	     -0.00000000000000527561	      0.00000000000006670914	     -7.68250074003119110000	     -3.89896545952787580000	     -9.50381907814324300000	    -38.96810912704177100000	    -22.18768981314719100000	     -6.18106614435834880000	     92.90938885120735300000	     88.66995791703072900000	     -0.00000000000003113293	      0.00000000000006192186	     -7.36283572998596280000	    -27.58779249767637500000	     -4.90449136730991950000	    110.27905188109868000000	    117.39259533440968000000	     -0.00000000000000125465	     -0.00000000000004032577
      2.69300000000000010000	     -8.49864415270858760000	      1.21133858161055150000	      6.12778890004753850000	      0.85610520159549575000	      0.95292931761355304000	     -0.30850902612763798000	     48.65314474101261100000	     -4.61303395934163610000	     -1.90149179060895410000	   -128.99786496579461000000	      1.64694010406663580000	      0.00000000000015115131	     -0.00000000000004414882	     13.52530889411087100000	     10.13553122611503800000	      2.18681886197217200000	    -42.08636938848987100000	     27.32951067656399900000	     -0.00000000000000581298	      0.00000000000006720384	     -7.64498122248127480000	     -3.81115486995564940000	     -9.68189600586524790000	    -39.20660775087522900000	    -22.16869451819015800000	     -6.17174769557320340000	     92.92941862465875100000	     88.56031876528655300000	     -0.00000000000003120088	      0.00000000000006214159	     -7.18536016030933580000	    -27.66118078627097900000	     -4.82159684782110980000	    110.42734707797540000000	    117.29014908178624000000	     -0.00000000000000125610	     -0.00000000000004043240
      2.69400000000000000000	     -8.51521384195116230000	      1.14123033944160060000	      6.19653296011542750000	      0.85614796505211210000	      0.95335277750754166000	     -0.30855772516624780000	     49.00444243337928900000	     -4.60874899067240040000	     -1.99102483322287330000	   -128.70608337728490000000	      1.76703823280206240000	      0.00000000000015160808	     -0.00000000000004418945	     13.12407550542734600000	     10.03572702585083200000	      2.32256797621816040000	    -41.78840388984797000000	     27.17722039853003200000	     -0.00000000000000637900	      0.00000000000006773250	     -7.60681119641802980000	     -3.72209936138156780000	     -9.85852631031430880000	    -39.44704880846489900000	    -22.14809691875790400000	     -6.16587920939238640000	     92.95223313844260800000	     88.45668034880715400000	     -0.00000000000003126906	      0.00000000000006235796	     -7.00793158945264950000	    -27.73488531121875400000	     -4.73477801089930760000	    110.57593743088765000000	    117.18670702773352000000	     -0.00000000000000125774	     -0.00000000000004052414
